<svg width="18" height="21" viewBox="0 0 18 21" fill="none" xmlns="http://www.w3.org/2000/svg">
<path d="M9 7.06752e-08C8.75182 -6.92308e-05 8.50647 0.0508281 8.28023 0.149314C8.05398 0.247799 7.85202 0.391621 7.68775 0.571232C7.52347 0.750843 7.40064 0.962135 7.32741 1.19108C7.25418 1.42003 7.23223 1.6614 7.263 1.89917C5.75737 2.27206 4.42302 3.11799 3.47016 4.3037C2.5173 5.48941 2.00009 6.9475 2 8.44828V15.2069H1C0.734784 15.2069 0.48043 15.3086 0.292893 15.4897C0.105357 15.6708 0 15.9163 0 16.1724C0 16.4285 0.105357 16.6741 0.292893 16.8551C0.48043 17.0362 0.734784 17.1379 1 17.1379H17C17.2652 17.1379 17.5196 17.0362 17.7071 16.8551C17.8946 16.6741 18 16.4285 18 16.1724C18 15.9163 17.8946 15.6708 17.7071 15.4897C17.5196 15.3086 17.2652 15.2069 17 15.2069H16V8.44828C15.9999 6.9475 15.4827 5.48941 14.5298 4.3037C13.577 3.11799 12.2426 2.27206 10.737 1.89917C10.7678 1.6614 10.7458 1.42003 10.6726 1.19108C10.5994 0.962135 10.4765 0.750843 10.3123 0.571232C10.148 0.391621 9.94602 0.247799 9.71977 0.149314C9.49353 0.0508281 9.24818 -6.92308e-05 9 7.06752e-08ZM9 21C8.20435 21 7.44129 20.6948 6.87868 20.1516C6.31607 19.6084 6 18.8717 6 18.1034H12C12 18.8717 11.6839 19.6084 11.1213 20.1516C10.5587 20.6948 9.79565 21 9 21Z" fill="black"/>
</svg>
